<!-- Generator: Adobe Illustrator 24.0.2, SVG Export Plug-In  -->
<svg version="1.1" xmlns="http://www.w3.org/2000/svg" xmlns:xlink="http://www.w3.org/1999/xlink" x="0px" y="0px"
	 width="1079.53px" height="175.59px" viewBox="0 0 1079.53 175.59" style="enable-background:new 0 0 1079.53 175.59;"
	 xml:space="preserve">
<style type="text/css">
	.st0{fill:#FF0001;}
	.st1{fill:#CCCCCC;}
	.st2{fill:#4D4D4D;}
	.st3{fill:#808080;}
</style>
<defs>
</defs>
<path class="st0" d="M549.49,121.05c-1.92-0.27-3.86-0.26-5.82,0.05s-3.83,0.94-5.61,1.91l-0.1,14.32c1.37,0.41,3.04,0.79,5,1.13
	c1.96,0.34,3.93,0.45,5.92,0.31c3.71-0.14,6.54-1.03,8.5-2.68s2.99-3.5,3.09-5.56c0.1-2.06-0.76-4.02-2.58-5.87
	C556.07,122.8,553.27,121.6,549.49,121.05z M554.49,133.15c-1.27,0.86-3.18,1.36-5.72,1.49c-1.17,0.07-2.35,0.04-3.55-0.1
	c-1.2-0.14-2.28-0.31-3.24-0.52l0.1-8.14c1.1-0.41,2.23-0.67,3.4-0.77c1.17-0.1,2.3-0.09,3.4,0.05c2.61,0.34,4.51,1,5.72,1.96
	c1.2,0.96,1.8,1.96,1.8,2.99C556.39,131.28,555.76,132.3,554.49,133.15z"/>
<path class="st0" d="M171.08,103.18c-1.44-1.06-3.09-1.91-4.94-2.52c-1.85-0.62-3.78-0.93-5.77-0.93c-0.76,0-2.06,0.05-3.91,0.15
	c-1.85,0.1-4.33,0.22-7.42,0.36v22.35c4.19,1.24,7.59,1.85,10.2,1.85c5.01,0,9.03-1.17,12.05-3.5c3.02-2.33,4.53-5.49,4.53-9.48
	c0-1.65-0.43-3.18-1.29-4.58C173.67,105.48,172.52,104.25,171.08,103.18z M159.23,120.64c-1.65,0-3.74-0.31-6.28-0.93v-15.86
	c2.47-0.21,4.94-0.31,7.42-0.31c1.37,0,2.76,0.21,4.17,0.62c1.41,0.41,2.66,0.98,3.76,1.7c1.1,0.72,1.99,1.56,2.68,2.52
	c0.69,0.96,1.03,1.99,1.03,3.09C172,117.59,167.74,120.64,159.23,120.64z"/>
<path class="st0" d="M443.3,98.91c-6.32,11.33-10.51,22.66-12.57,33.99h25.13c-1.1-5.77-2.68-11.47-4.74-17.1
	C449.07,110.17,446.46,104.54,443.3,98.91z M435.37,128.98c0.96-4.12,2.09-8.02,3.4-11.69c1.3-3.67,2.81-7.16,4.53-10.45
	c3.36,6.59,6.01,13.97,7.93,22.15H435.37z"/>
<path class="st0" d="M691.63,116.26c-2.88,6.69-4.74,13.79-5.56,21.27h21.53V98.19h-3.61C698.63,103.54,694.51,109.57,691.63,116.26
	z M703.48,133.31h-12.57c0.82-5.15,2.28-10.16,4.38-15.04c2.09-4.88,4.82-9.3,8.19-13.29V133.31z"/>
<path class="st0" d="M68.31,74.18L42.47,27.83c-8.18,12.81-14.99,24.6-20.43,35.37c-5.44,10.77-9.8,21.16-13.08,31.17
	c-3.29,10.01-5.6,20.05-6.94,30.12C0.67,134.56,0,145.24,0,156.55v2.1h36.18v-1.78c0-9.26,0.62-18.19,1.86-26.81
	c1.24-8.61,3.2-17.06,5.9-25.36l22.61,40.7l19.54-31.49v44.73h36.18V40.75H89.15L68.31,74.18z M116.6,46.57v106.27H91.89V92.92
	L66.86,134.1L42.8,90.82c-8.18,21.96-12.27,42.69-12.27,62.18H5.65c0.54-37.79,12.7-75.8,36.5-114.02l25.84,46.51l24.39-38.92H116.6
	z"/>
<path class="st0" d="M185.6,88.56c-3.3-2.92-7.12-5.22-11.48-6.9c-4.36-1.68-8.94-2.52-13.75-2.52c-11.47,0-22.08,1.75-31.83,5.25
	v74.26h24.41v-14.11c1.1,0.14,2.18,0.26,3.24,0.36c1.06,0.1,2.15,0.15,3.24,0.15c5.22,0,10.08-0.82,14.57-2.47
	c4.5-1.65,8.41-3.97,11.74-6.95c3.33-2.99,5.94-6.54,7.83-10.66c1.89-4.12,2.83-8.62,2.83-13.49c0-4.46-0.98-8.67-2.94-12.62
	C191.52,94.91,188.9,91.48,185.6,88.56z M189.98,123.42c-1.68,3.64-4.02,6.78-7,9.42c-2.99,2.64-6.49,4.69-10.51,6.13
	c-4.02,1.44-8.39,2.16-13.13,2.16c-2.54,0-5.97-0.41-10.3-1.24v14.94h-16.69V87.06c7.9-2.68,17.23-4.02,28.02-4.02
	c4.26,0,8.33,0.74,12.21,2.21c3.88,1.48,7.3,3.49,10.25,6.03c2.95,2.54,5.3,5.55,7.06,9.01c1.75,3.47,2.63,7.19,2.63,11.18
	C192.5,115.8,191.66,119.78,189.98,123.42z"/>
<path class="st0" d="M201.87,158.65h24.41V79.13h-24.41V158.65z M205.79,83.04h16.58v71.79h-16.58V83.04z"/>
<path class="st0" d="M294.88,76.35h-15.14c2.06-2.2,3.64-4.94,4.74-8.24c1.1-3.3,1.51-7.21,1.24-11.74h-17.1
	c0.07,2.27-0.22,3.98-0.88,5.15c-0.65,1.17-1.39,1.75-2.21,1.75c-0.89,0-1.73-0.6-2.52-1.8c-0.79-1.2-1.18-2.9-1.18-5.1h-17.61
	c-0.21,4.53,0.26,8.45,1.39,11.74c1.13,3.3,2.69,6.04,4.69,8.24h-18.33v82.3h21.73c3.36-6.04,6.87-12.27,10.51-18.69
	c3.64-6.42,7.21-12.79,10.71-19.11v0.93v2.27c0,2.82-0.12,5.75-0.36,8.81c-0.24,3.06-0.57,6.08-0.98,9.06
	c-0.41,2.99-0.91,5.91-1.49,8.75c-0.58,2.85-1.22,5.51-1.91,7.98h26.37c1.17-6.45,2.02-12.72,2.58-18.8
	c0.55-6.08,0.82-11.96,0.82-17.66c0-7.28-0.43-14.76-1.29-22.45C297.78,92.04,296.53,84.25,294.88,76.35z M248.22,60.59h9.58
	c0,2.2,0.79,3.88,2.37,5.05c1.58,1.17,3.31,1.77,5.2,1.8c1.89,0.04,3.6-0.5,5.15-1.6c1.54-1.1,2.28-2.85,2.21-5.25h9.17
	c0.34,3.98-0.29,7.31-1.91,9.99c-1.61,2.68-3.71,4.7-6.28,6.08c-2.57,1.37-5.41,2.06-8.5,2.06c-3.09,0-5.92-0.65-8.5-1.96
	c-2.58-1.3-4.7-3.31-6.39-6.03C248.65,68.02,247.95,64.64,248.22,60.59z M269.34,82.53c-2.13,3.78-4.26,7.59-6.39,11.43
	c-2.13,3.85-4.29,7.69-6.49,11.54V81.09c1.37,0.69,2.78,1.17,4.22,1.44c1.44,0.28,2.88,0.41,4.33,0.41
	C266.59,82.94,268.03,82.81,269.34,82.53z M295.34,136.35c-0.45,6.22-1.18,12.24-2.21,18.08h-17.51c0.75-2.68,1.41-5.96,1.96-9.84
	c0.55-3.88,0.94-7.96,1.18-12.26c0.24-4.29,0.29-8.65,0.15-13.08c-0.14-4.43-0.52-8.56-1.13-12.41l-26.37,47.59h-15.45V80.68h16.48
	v40.27l22.45-40.27h16.79c1.24,5.84,2.2,11.86,2.88,18.08c0.69,6.22,1.1,12.48,1.24,18.8C295.94,123.87,295.79,130.13,295.34,136.35
	z"/>
<path class="st0" d="M338.55,82.94l7.31,23.28c5.01-1.65,9.44-2.78,13.29-3.4v55.83h24.41v-55.83c3.71,0.62,8.17,1.75,13.39,3.4
	l7.31-23.28c-11.12-3.57-22.08-5.36-32.86-5.36C360.63,77.59,349.68,79.37,338.55,82.94z M394.38,101.38
	c-1.99-0.62-4.21-1.17-6.64-1.65c-2.44-0.48-5.1-0.89-7.98-1.24v56.34h-16.69V98.5c-2.88,0.34-5.55,0.76-7.98,1.24
	c-2.44,0.48-4.69,1.03-6.75,1.65l-4.94-15.96c9.06-2.68,18.4-4.02,28.02-4.02c9.61,0,18.95,1.34,28.02,4.02L394.38,101.38z"/>
<path class="st0" d="M454.94,79.13h-23.28c-7.97,12.15-13.63,23.28-16.99,33.37c-3.85,11.4-5.77,23.76-5.77,37.08
	c0,2.95,0.1,5.97,0.31,9.06h24.62l-0.41-5.25h19.78l-0.41,5.25h24.62c0.07-1.51,0.12-3,0.15-4.48c0.03-1.48,0.05-2.94,0.05-4.38
	c0-13.53-1.89-25.92-5.67-37.18C468.57,102.58,462.9,91.42,454.94,79.13z M473.79,151.75c0,1.03-0.04,2.06-0.1,3.09H457l0.21-5.25
	h-27.81l0.21,5.25h-16.69c-0.07-1.03-0.12-2.06-0.16-3.09c-0.04-1.03-0.05-2.06-0.05-3.09c0-11.88,1.82-23.35,5.46-34.4
	c3.36-10.09,8.55-20.5,15.55-31.21h19.16c7,10.85,12.15,21.25,15.45,31.21c3.64,11.06,5.46,22.52,5.46,34.4
	C473.79,149.69,473.79,150.72,473.79,151.75z"/>
<path class="st0" d="M580.75,119.3c-1.07-2.4-2.44-4.6-4.12-6.59c-1.68-1.99-3.62-3.78-5.82-5.36c-2.2-1.58-4.57-2.95-7.11-4.12
	h8.96V78.2l-55.1,0.1v75.29c2.27,0.76,4.7,1.44,7.31,2.06c2.61,0.62,5.3,1.15,8.09,1.6c2.78,0.45,5.54,0.81,8.29,1.08
	c2.75,0.28,5.39,0.41,7.93,0.41c5.22-0.27,9.97-1.18,14.27-2.73c4.29-1.54,7.93-3.67,10.92-6.39c2.99-2.71,5.22-5.97,6.69-9.78
	c1.48-3.81,2.08-8.12,1.8-12.93C582.52,124.25,581.82,121.71,580.75,119.3z M577.3,138.61c-1.24,3.33-3.14,6.16-5.72,8.5
	c-2.58,2.34-5.77,4.14-9.58,5.41c-3.81,1.27-8.15,1.97-13.03,2.11c-5.36,0.14-10.28-0.17-14.78-0.93c-4.5-0.75-8.7-1.79-12.62-3.09
	V82.53l47.07-0.1v16.69h-30.59v6.39c2.88-0.89,5.87-1.35,8.96-1.39c3.09-0.03,6.09,0.28,9.01,0.93c2.92,0.65,5.7,1.67,8.34,3.04
	c2.64,1.37,4.98,3,7,4.89c2.02,1.89,3.69,4.03,5,6.44c1.3,2.4,2.09,5.01,2.37,7.83C579.02,131.49,578.54,135.28,577.3,138.61z"/>
<path class="st0" d="M628.03,92.88c-1.41,5.25-2.97,10.25-4.69,14.99c-1.58-2.2-3.04-4.57-4.38-7.11c-1.34-2.54-2.52-5.11-3.55-7.72
	c-1.03-2.61-1.92-5.2-2.68-7.78c-0.76-2.57-1.37-5-1.85-7.26h-25.03c1.85,9.75,4.84,19.23,8.96,28.43
	c4.12,9.2,9.51,17.44,16.17,24.72c-1.92,2.88-4.17,5.65-6.75,8.29c-2.58,2.64-5.86,5.61-9.84,8.91l21.53,14.01
	c10.85-11.67,19.59-24.67,26.21-38.99c6.63-14.32,11.24-29.44,13.85-45.37h-24.72C630.52,82.67,629.43,87.63,628.03,92.88z
	 M651.25,82.12c-2.2,14.01-6.28,27.38-12.26,40.12c-5.97,12.74-13.84,24.33-23.59,34.76l-14.11-9.06c2.88-2.33,5.54-4.94,7.98-7.83
	c2.44-2.88,4.72-5.97,6.85-9.27c-3.5-3.5-6.64-7.23-9.42-11.18c-2.78-3.95-5.22-8-7.31-12.15c-2.1-4.15-3.86-8.38-5.3-12.67
	c-1.44-4.29-2.54-8.53-3.3-12.72h16.79c0.48,2.33,1.24,4.94,2.27,7.83c1.03,2.88,2.25,5.84,3.66,8.86c1.41,3.02,3.02,5.99,4.84,8.91
	c1.82,2.92,3.83,5.58,6.03,7.98c2.61-5.84,4.77-11.6,6.49-17.3c1.72-5.7,2.99-11.12,3.81-16.27H651.25z"/>
<path class="st0" d="M728.5,77.17h-34.71c-4.26,4.67-8,9.29-11.23,13.85c-3.23,4.57-6.03,9.15-8.39,13.75
	c-2.37,4.6-4.33,9.25-5.87,13.96c-1.54,4.7-2.73,9.56-3.55,14.57h-6.9v34.3h26.88c0-0.96,0.02-2.3,0.05-4.02
	c0.03-1.72,0.05-3.37,0.05-4.94h22.76l0.1,8.96h27.19v-34.3h-6.39V77.17z M730.77,137.53v25.96h-18.95l-0.1-8.96h-31l-0.1,8.96
	h-18.75v-25.96h6.49c0.69-5.22,1.72-10.23,3.09-15.04c1.37-4.81,3.16-9.51,5.36-14.11c2.2-4.6,4.86-9.12,7.98-13.54
	c3.12-4.43,6.75-8.91,10.87-13.44h28.84v56.13H730.77z"/>
<path class="st0" d="M779.95,92.88c-1.41,5.25-2.97,10.25-4.69,14.99c-1.58-2.2-3.04-4.57-4.38-7.11c-1.34-2.54-2.52-5.11-3.55-7.72
	c-1.03-2.61-1.92-5.2-2.68-7.78c-0.76-2.57-1.37-5-1.85-7.26h-25.03c1.85,9.75,4.84,19.23,8.96,28.43
	c4.12,9.2,9.51,17.44,16.17,24.72c-1.92,2.88-4.17,5.65-6.75,8.29c-2.58,2.64-5.86,5.61-9.84,8.91l21.53,14.01
	c10.85-11.67,19.59-24.67,26.21-38.99c6.63-14.32,11.24-29.44,13.85-45.37H783.2C782.44,82.67,781.36,87.63,779.95,92.88z
	 M803.18,82.12c-2.2,14.01-6.28,27.38-12.26,40.12c-5.97,12.74-13.84,24.33-23.59,34.76l-14.11-9.06c2.88-2.33,5.54-4.94,7.98-7.83
	c2.44-2.88,4.72-5.97,6.85-9.27c-3.5-3.5-6.64-7.23-9.42-11.18c-2.78-3.95-5.22-8-7.31-12.15c-2.1-4.15-3.86-8.38-5.3-12.67
	c-1.44-4.29-2.54-8.53-3.3-12.72h16.79c0.48,2.33,1.24,4.94,2.27,7.83c1.03,2.88,2.25,5.84,3.66,8.86c1.41,3.02,3.02,5.99,4.84,8.91
	c1.82,2.92,3.83,5.58,6.03,7.98c2.61-5.84,4.77-11.6,6.49-17.3c1.72-5.7,2.99-11.12,3.81-16.27H803.18z"/>
<path class="st0" d="M873.11,76.35h-15.14c2.06-2.2,3.64-4.94,4.74-8.24c1.1-3.3,1.51-7.21,1.24-11.74h-17.1
	c0.07,2.27-0.22,3.98-0.88,5.15c-0.65,1.17-1.39,1.75-2.21,1.75c-0.89,0-1.74-0.6-2.52-1.8c-0.79-1.2-1.18-2.9-1.18-5.1h-17.61
	c-0.21,4.53,0.26,8.45,1.39,11.74s2.69,6.04,4.69,8.24h-18.33v82.3h21.73c3.36-6.04,6.87-12.27,10.51-18.69
	c3.64-6.42,7.21-12.79,10.71-19.11v0.93v2.27c0,2.82-0.12,5.75-0.36,8.81c-0.24,3.06-0.57,6.08-0.98,9.06
	c-0.41,2.99-0.91,5.91-1.49,8.75c-0.58,2.85-1.22,5.51-1.91,7.98h26.37c1.17-6.45,2.02-12.72,2.58-18.8
	c0.55-6.08,0.82-11.96,0.82-17.66c0-7.28-0.43-14.76-1.29-22.45C876.02,92.04,874.76,84.25,873.11,76.35z M826.46,60.59h9.58
	c0,2.2,0.79,3.88,2.37,5.05c1.58,1.17,3.31,1.77,5.2,1.8c1.89,0.04,3.61-0.5,5.15-1.6c1.54-1.1,2.28-2.85,2.21-5.25h9.17
	c0.34,3.98-0.29,7.31-1.91,9.99c-1.61,2.68-3.71,4.7-6.28,6.08c-2.58,1.37-5.41,2.06-8.5,2.06s-5.92-0.65-8.5-1.96
	c-2.58-1.3-4.7-3.31-6.39-6.03C826.88,68.02,826.18,64.64,826.46,60.59z M847.57,82.53c-2.13,3.78-4.26,7.59-6.39,11.43
	c-2.13,3.85-4.29,7.69-6.49,11.54V81.09c1.37,0.69,2.78,1.17,4.22,1.44c1.44,0.28,2.88,0.41,4.33,0.41
	C844.82,82.94,846.27,82.81,847.57,82.53z M873.58,136.35c-0.45,6.22-1.18,12.24-2.21,18.08h-17.51c0.75-2.68,1.41-5.96,1.96-9.84
	c0.55-3.88,0.94-7.96,1.18-12.26c0.24-4.29,0.29-8.65,0.15-13.08c-0.14-4.43-0.51-8.56-1.13-12.41l-26.37,47.59H814.2V80.68h16.48
	v40.27l22.45-40.27h16.79c1.24,5.84,2.2,11.86,2.88,18.08c0.69,6.22,1.1,12.48,1.24,18.8C874.18,123.87,874.02,130.13,873.58,136.35
	z"/>
<path class="st1" d="M182.82,91.29c-2.95-2.54-6.37-4.55-10.25-6.03c-3.88-1.48-7.95-2.21-12.21-2.21
	c-10.78,0-20.12,1.34-28.02,4.02v67.77h16.69V139.9c4.33,0.82,7.76,1.24,10.3,1.24c4.74,0,9.12-0.72,13.13-2.16
	c4.02-1.44,7.52-3.48,10.51-6.13c2.99-2.64,5.32-5.78,7-9.42c1.68-3.64,2.52-7.62,2.52-11.95c0-3.98-0.88-7.71-2.63-11.18
	C188.12,96.83,185.77,93.83,182.82,91.29z M171.28,120.95c-3.02,2.34-7.04,3.5-12.05,3.5c-2.61,0-6.01-0.62-10.2-1.85v-22.35
	c3.09-0.14,5.56-0.26,7.42-0.36c1.85-0.1,3.16-0.15,3.91-0.15c1.99,0,3.91,0.31,5.77,0.93c1.85,0.62,3.5,1.46,4.94,2.52
	c1.44,1.07,2.59,2.3,3.45,3.71c0.86,1.41,1.29,2.94,1.29,4.58C175.81,115.46,174.3,118.62,171.28,120.95z"/>
<path class="st1" d="M576.37,119.4c-1.3-2.4-2.97-4.55-5-6.44c-2.03-1.89-4.36-3.52-7-4.89c-2.64-1.37-5.43-2.38-8.34-3.04
	c-2.92-0.65-5.92-0.96-9.01-0.93c-3.09,0.04-6.08,0.5-8.96,1.39v-6.39h30.59V82.43l-47.07,0.1v68.08c3.91,1.31,8.12,2.34,12.62,3.09
	c4.5,0.76,9.42,1.07,14.78,0.93c4.88-0.14,9.22-0.84,13.03-2.11c3.81-1.27,7-3.07,9.58-5.41c2.58-2.33,4.48-5.17,5.72-8.5
	c1.24-3.33,1.71-7.12,1.44-11.38C578.47,124.42,577.68,121.81,576.37,119.4z M557.37,136.09c-1.96,1.65-4.79,2.54-8.5,2.68
	c-1.99,0.14-3.96,0.04-5.92-0.31c-1.96-0.34-3.62-0.72-5-1.13l0.1-14.32c1.78-0.96,3.66-1.6,5.61-1.91s3.9-0.33,5.82-0.05
	c3.78,0.55,6.57,1.75,8.39,3.6c1.82,1.85,2.68,3.81,2.58,5.87C560.36,132.59,559.33,134.44,557.37,136.09z"/>
<path class="st1" d="M624.37,115.7c-2.2-2.4-4.21-5.06-6.03-7.98c-1.82-2.92-3.43-5.89-4.84-8.91c-1.41-3.02-2.63-5.97-3.66-8.86
	c-1.03-2.88-1.79-5.49-2.27-7.83h-16.79c0.75,4.19,1.85,8.43,3.3,12.72c1.44,4.29,3.21,8.52,5.3,12.67
	c2.09,4.16,4.53,8.21,7.31,12.15c2.78,3.95,5.92,7.67,9.42,11.18c-2.13,3.3-4.41,6.39-6.85,9.27c-2.44,2.88-5.1,5.49-7.98,7.83
	l14.11,9.06c9.75-10.44,17.61-22.02,23.59-34.76c5.97-12.74,10.06-26.11,12.26-40.12h-16.58c-0.82,5.15-2.1,10.58-3.81,16.27
	C629.14,104.09,626.98,109.86,624.37,115.7z"/>
<path class="st1" d="M452.88,83.04h-19.16c-7,10.71-12.19,21.12-15.55,31.21c-3.64,11.06-5.46,22.52-5.46,34.4
	c0,1.03,0.02,2.06,0.05,3.09c0.03,1.03,0.09,2.06,0.16,3.09h16.69l-0.21-5.25h27.81l-0.21,5.25h16.69c0.07-1.03,0.1-2.06,0.1-3.09
	c0-1.03,0-2.06,0-3.09c0-11.88-1.82-23.35-5.46-34.4C465.03,104.3,459.88,93.9,452.88,83.04z M430.73,132.9
	c2.06-11.33,6.25-22.66,12.57-33.99c3.16,5.63,5.77,11.26,7.83,16.89c2.06,5.63,3.64,11.33,4.74,17.1H430.73z"/>
<path class="st1" d="M256.72,76.76c2.57,1.31,5.41,1.96,8.5,1.96c3.09,0,5.92-0.69,8.5-2.06c2.58-1.37,4.67-3.4,6.28-6.08
	c1.61-2.68,2.25-6.01,1.91-9.99h-9.17c0.07,2.4-0.67,4.16-2.21,5.25c-1.54,1.1-3.26,1.63-5.15,1.6c-1.89-0.03-3.62-0.63-5.2-1.8
	c-1.58-1.17-2.37-2.85-2.37-5.05h-9.58c-0.28,4.05,0.43,7.43,2.11,10.15C252.02,73.45,254.14,75.46,256.72,76.76z"/>
<rect x="205.79" y="83.04" class="st1" width="16.58" height="71.79"/>
<path class="st1" d="M343.39,85.41l4.94,15.96c2.06-0.62,4.31-1.17,6.75-1.65c2.44-0.48,5.1-0.89,7.98-1.24v56.34h16.69V98.5
	c2.88,0.34,5.54,0.76,7.98,1.24c2.44,0.48,4.65,1.03,6.64,1.65l5.05-15.96c-9.06-2.68-18.4-4.02-28.02-4.02
	C361.79,81.4,352.46,82.74,343.39,85.41z"/>
<path class="st1" d="M294.57,98.75c-0.69-6.21-1.65-12.24-2.88-18.08H274.9l-22.45,40.27V80.68h-16.48v73.75h15.45l26.37-47.59
	c0.62,3.85,0.99,7.98,1.13,12.41c0.14,4.43,0.09,8.79-0.15,13.08c-0.24,4.29-0.64,8.38-1.18,12.26c-0.55,3.88-1.2,7.16-1.96,9.84
	h17.51c1.03-5.84,1.77-11.86,2.21-18.08c0.45-6.21,0.6-12.48,0.46-18.8C295.67,111.23,295.26,104.97,294.57,98.75z"/>
<path class="st1" d="M776.3,115.7c-2.2-2.4-4.21-5.06-6.03-7.98c-1.82-2.92-3.43-5.89-4.84-8.91c-1.41-3.02-2.63-5.97-3.66-8.86
	c-1.03-2.88-1.79-5.49-2.27-7.83h-16.79c0.75,4.19,1.85,8.43,3.3,12.72c1.44,4.29,3.21,8.52,5.3,12.67
	c2.09,4.16,4.53,8.21,7.31,12.15c2.78,3.95,5.92,7.67,9.42,11.18c-2.13,3.3-4.41,6.39-6.85,9.27c-2.44,2.88-5.1,5.49-7.98,7.83
	l14.11,9.06c9.75-10.44,17.61-22.02,23.59-34.76c5.97-12.74,10.06-26.11,12.26-40.12H786.6c-0.82,5.15-2.1,10.58-3.81,16.27
	C781.07,104.09,778.9,109.86,776.3,115.7z"/>
<path class="st0" d="M42.15,38.98C18.36,77.2,6.19,115.2,5.65,152.99h24.87c0-19.49,4.09-40.21,12.27-62.18l24.06,43.28l25.03-41.18
	v59.92h24.71V46.57H92.38L67.99,85.49L42.15,38.98z"/>
<path class="st1" d="M872.81,98.75c-0.69-6.21-1.65-12.24-2.88-18.08h-16.79l-22.45,40.27V80.68H814.2v73.75h15.45l26.37-47.59
	c0.62,3.85,0.99,7.98,1.13,12.41c0.14,4.43,0.08,8.79-0.15,13.08c-0.24,4.29-0.64,8.38-1.18,12.26c-0.55,3.88-1.2,7.16-1.96,9.84
	h17.51c1.03-5.84,1.77-11.86,2.21-18.08c0.45-6.21,0.6-12.48,0.46-18.8C873.9,111.23,873.49,104.97,872.81,98.75z"/>
<path class="st1" d="M834.95,76.76c2.58,1.31,5.41,1.96,8.5,1.96s5.92-0.69,8.5-2.06c2.57-1.37,4.67-3.4,6.28-6.08
	c1.61-2.68,2.25-6.01,1.91-9.99h-9.17c0.07,2.4-0.67,4.16-2.21,5.25c-1.54,1.1-3.26,1.63-5.15,1.6c-1.89-0.03-3.62-0.63-5.2-1.8
	c-1.58-1.17-2.37-2.85-2.37-5.05h-9.58c-0.27,4.05,0.43,7.43,2.11,10.15C830.25,73.45,832.38,75.46,834.95,76.76z"/>
<path class="st1" d="M724.49,81.4h-28.84c-4.12,4.53-7.74,9.01-10.87,13.44c-3.13,4.43-5.79,8.94-7.98,13.54
	c-2.2,4.6-3.98,9.31-5.36,14.11c-1.37,4.81-2.4,9.82-3.09,15.04h-6.49v25.96h18.75l0.1-8.96h31l0.1,8.96h18.95v-25.96h-6.28V81.4z
	 M707.6,137.53h-21.53c0.82-7.48,2.68-14.57,5.56-21.27c2.88-6.7,7-12.72,12.36-18.08h3.61V137.53z"/>
<g>
	<rect x="1040.21" y="73.62" class="st2" width="2.59" height="26.91"/>
	<g>
		<rect x="989.39" y="124.32" class="st3" width="39.63" height="27.37"/>
		<rect x="986.19" y="121.19" class="st3" width="6.39" height="6.26"/>
		<rect x="1006.01" y="121.6" class="st3" width="6.39" height="6.26"/>
		<rect x="996.1" y="121.19" class="st3" width="6.39" height="6.26"/>
		<rect x="1015.92" y="121.19" class="st3" width="6.39" height="6.26"/>
		<rect x="1025.83" y="121.19" class="st3" width="6.39" height="6.26"/>
	</g>
	<rect x="954.65" y="43.04" class="st2" width="39.76" height="118.9"/>
	<rect x="1014.28" y="97.3" class="st1" width="54.45" height="78.28"/>
	<rect x="1003.48" y="86.32" class="st1" width="21.61" height="20.46"/>
	<rect x="1057.93" y="87.07" class="st1" width="21.61" height="20.46"/>
	<rect x="1030.7" y="86.32" class="st1" width="21.61" height="20.46"/>
	<polygon class="st0" points="974.52,0 947.08,45 1001.97,45 	"/>
	<g>
		<rect x="909.7" y="118.72" class="st1" width="64.82" height="43.22"/>
		<rect x="904.48" y="113.77" class="st1" width="10.45" height="9.89"/>
		<rect x="936.89" y="114.41" class="st1" width="10.45" height="9.89"/>
		<rect x="920.68" y="113.77" class="st1" width="10.45" height="9.89"/>
		<rect x="953.09" y="113.77" class="st1" width="10.45" height="9.89"/>
		<rect x="969.3" y="113.77" class="st1" width="10.45" height="9.89"/>
	</g>
	<path class="st2" d="M1035.02,145.11v-15.97c0-7.33-3.82-13.28-8.53-13.28h0c-4.71,0-8.53,5.95-8.53,13.28v15.97H1035.02z"/>
	<path class="st2" d="M953.09,161.94v-9.19c0-4.22-4.91-7.64-10.97-7.64h0c-6.06,0-10.97,3.42-10.97,7.64v9.19H953.09z"/>
	<path class="st2" d="M950.65,126.41v8.3c0,3.81-3.82,6.9-8.53,6.9h0c-4.71,0-8.53-3.09-8.53-6.9v-8.3H950.65z"/>
	<rect x="1040.21" y="60.63" class="st0" width="28.52" height="12.99"/>
	<path class="st0" d="M949.43,127.5v7.12c0,3.27-3.28,5.92-7.32,5.92h0c-4.04,0-7.32-2.65-7.32-5.92v-7.12H949.43z"/>
</g>
</svg>
